<svg width="24" height="24" viewBox="0 0 24 24" xmlns="http://www.w3.org/2000/svg">
  <!-- Mobile phone body -->
  <path d="M8 2C6.9 2 6 2.9 6 4v16c0 1.1.9 2 2 2h8c1.1 0 2-.9 2-2V4c0-1.1-.9-2-2-2H8zm0 1.5h8c.28 0 .5.22.5.5v16c0 .28-.22.5-.5.5H8c-.28 0-.5-.22-.5-.5V4c0-.28.22-.5.5-.5z" fill="#C5C5C5"/>
  <!-- Home button -->
  <rect x="10" y="18.5" width="4" height="1.2" rx="0.6" fill="#C5C5C5"/>
  <!-- Signal wave 1 -->
  <path d="M18.3 8.5c-.3 0-.5-.1-.7-.3-.4-.4-.4-1 0-1.4l1.5-1.5c.4-.4 1-.4 1.4 0s.4 1 0 1.4l-1.5 1.5c-.2.2-.4.3-.7.3z" fill="#C5C5C5"/>
  <!-- Signal wave 2 -->
  <path d="M20.5 5.5c-.3 0-.5-.1-.7-.3-.4-.4-.4-1 0-1.4l.5-.5c.4-.4 1-.4 1.4 0s.4 1 0 1.4l-.5.5c-.2.2-.4.3-.7.3z" fill="#C5C5C5"/>
</svg>
