<svg width="16" height="16" viewBox="0 0 16 16" xmlns="http://www.w3.org/2000/svg">
  <path d="M4 1.5C4 .67 4.67 0 5.5 0h3c.83 0 1.5.67 1.5 1.5v11c0 .83-.67 1.5-1.5 1.5h-3c-.83 0-1.5-.67-1.5-1.5v-11zM5.5 1.2a.3.3 0 00-.3.3v8.7h3.6V1.5a.3.3 0 00-.3-.3h-3zM7 12a.75.75 0 110-1.5.75.75 0 010 1.5z" fill="#C5C5C5"/>
  <path d="M11.5 4.2c.5.7.8 1.5.8 2.3s-.3 1.6-.8 2.3" stroke="#C5C5C5" stroke-width="1.3" stroke-linecap="round" fill="none"/>
  <path d="M13.2 2.8c.8 1.1 1.3 2.4 1.3 3.7s-.5 2.6-1.3 3.7" stroke="#C5C5C5" stroke-width="1.3" stroke-linecap="round" fill="none"/>
</svg>
