<svg width="16" height="16" viewBox="0 0 16 16" xmlns="http://www.w3.org/2000/svg">
  <g stroke="#d97757" stroke-width="1" stroke-linecap="round">
    <line x1="6" y1="9" x2="6" y2="4"/>
    <line x1="6" y1="9" x2="8.5" y2="5.43"/>
    <line x1="6" y1="9" x2="10.33" y2="7.5"/>
    <line x1="6" y1="9" x2="11" y2="9"/>
    <line x1="6" y1="9" x2="10.33" y2="10.5"/>
    <line x1="6" y1="9" x2="8.5" y2="12.57"/>
    <line x1="6" y1="9" x2="6" y2="14"/>
    <line x1="6" y1="9" x2="3.5" y2="12.57"/>
    <line x1="6" y1="9" x2="1.67" y2="10.5"/>
    <line x1="6" y1="9" x2="1" y2="9"/>
    <line x1="6" y1="9" x2="1.67" y2="7.5"/>
    <line x1="6" y1="9" x2="3.5" y2="5.43"/>
  </g>
  <g transform="rotate(-45 6 9)">
    <path d="M13 7a3 3 0 0 1 0 4" stroke="#888888" stroke-width="1.1" stroke-linecap="round" fill="none"/>
    <path d="M14.5 5.8a4.5 4.5 0 0 1 0 6.4" stroke="#888888" stroke-width="1.1" stroke-linecap="round" fill="none"/>
  </g>
</svg>
